<svg width="78" height="81" viewBox="0 0 78 81" fill="none" xmlns="http://www.w3.org/2000/svg">
<path d="M72.39 23.51C67.39 14.49 59.17 7.96 49.25 5.12C48.36 4.88 47.43 5.38 47.18 6.27C46.93 7.16 47.44 8.09 48.33 8.34C57.39 10.93 64.89 16.89 69.47 25.13C74.04 33.37 75.13 42.89 72.54 51.95C69.95 61.01 63.99 68.52 55.75 73.09C47.51 77.66 37.99 78.75 28.93 76.16C10.23 70.82 -0.629967 51.25 4.72003 32.56C7.71003 22.1 15.37 13.78 25.09 9.71L26.43 15.06C26.67 16 27.83 16.34 28.53 15.66L38.53 5.99C39.23 5.32 38.93 4.14 38 3.87L24.62 0.0499964C23.69 -0.220004 22.81 0.629996 23.05 1.57L24.26 6.42C13.4 10.8 4.82003 20.01 1.49003 31.63C-4.35997 52.11 7.53003 73.53 28 79.39C31.52 80.4 35.11 80.9 38.68 80.9C45.15 80.9 51.55 79.26 57.37 76.03C66.39 71.02 72.92 62.8 75.76 52.89C78.6 42.96 77.4 32.53 72.39 23.51Z" fill="white"/>
</svg>
