<svg width="232" height="232" viewBox="0 0 232 232" fill="none" xmlns="http://www.w3.org/2000/svg">
<path d="M116 232C52.04 232 0 179.96 0 116C0 52.04 52.04 0 116 0C179.96 0 232 52.04 232 116C232 179.96 179.96 232 116 232ZM116 10C57.55 10 10 57.55 10 116C10 174.45 57.55 222 116 222C174.45 222 222 174.45 222 116C222 57.55 174.45 10 116 10Z" fill="white"/>
<path d="M150.43 108.75L100.57 79.96C94.98 76.73 88 80.77 88 87.22V144.79C88 151.24 94.98 155.27 100.57 152.05L150.43 123.26C156.02 120.04 156.02 111.97 150.43 108.75Z" fill="white"/>
</svg>
