<svg width="55" height="55" viewBox="0 0 55 55" fill="none" xmlns="http://www.w3.org/2000/svg">
<path d="M50.3 30.96L54.62 27.86L53.51 19.62L48.53 17.74C47.88 16.29 47.08 14.92 46.15 13.64L47.01 8.39L40.4 3.35L35.55 5.54C34.07 4.98 32.54 4.57 30.97 4.32L27.86 0L19.62 1.11L17.74 6.09C16.29 6.74 14.92 7.54 13.64 8.47L8.39 7.61L3.35001 14.22L5.53999 19.07C4.97999 20.55 4.56999 22.09 4.31999 23.65L0 26.76L1.11 35L6.11 36.89C6.76 38.33 7.56 39.68 8.48 40.94L7.62 46.23L14.23 51.27L19.09 49.07C20.55 49.62 22.08 50.02 23.64 50.27L26.76 54.61L35 53.5L36.88 48.52C38.33 47.87 39.7 47.07 40.98 46.14L46.23 47L51.27 40.39L49.08 35.54C49.65 34.07 50.06 32.53 50.3 30.96ZM27.32 46.53C16.72 46.53 8.10001 37.91 8.10001 27.31C8.10001 16.71 16.72 8.09 27.32 8.09C37.92 8.09 46.54 16.71 46.54 27.31C46.54 37.91 37.92 46.53 27.32 46.53Z" fill="white"/>
</svg>
