<svg width="232" height="232" viewBox="0 0 232 232" fill="none" xmlns="http://www.w3.org/2000/svg">
<path d="M116 232C52.04 232 0 179.96 0 116C0 52.04 52.04 0 116 0C179.96 0 232 52.04 232 116C232 179.96 179.96 232 116 232ZM116 10C57.55 10 10 57.55 10 116C10 174.45 57.55 222 116 222C174.45 222 222 174.45 222 116C222 57.55 174.45 10 116 10Z" fill="white"/>
<path d="M103.98 153.18H96.3402C93.3902 153.18 90.9902 150.79 90.9902 147.83V84.17C90.9902 81.22 93.3802 78.82 96.3402 78.82H103.98C106.93 78.82 109.33 81.21 109.33 84.17V147.84C109.33 150.79 106.93 153.18 103.98 153.18Z" fill="white"/>
<path d="M135.66 153.18H128.02C125.07 153.18 122.67 150.79 122.67 147.83V84.17C122.67 81.22 125.06 78.82 128.02 78.82H135.66C138.61 78.82 141.01 81.21 141.01 84.17V147.84C141.01 150.79 138.61 153.18 135.66 153.18Z" fill="white"/>
</svg>
