<svg width="16" height="18" viewBox="0 0 16 18" fill="none" xmlns="http://www.w3.org/2000/svg">
<path d="M0.452122 9.45529L14.0829 17.2054C14.2265 17.2828 14.388 17.3226 14.5517 17.321C14.7155 17.3194 14.8761 17.2764 15.0181 17.1961C15.1601 17.1158 15.2788 17.001 15.3628 16.8627C15.4467 16.7243 15.4931 16.567 15.4976 16.406L15.4976 0.915107C15.4931 0.754018 15.4467 0.596756 15.3628 0.458395C15.2788 0.320034 15.1601 0.20522 15.0181 0.124963C14.8761 0.0447066 14.7155 0.00169989 14.5517 6.79951e-05C14.388 -0.0015639 14.2265 0.0382319 14.0829 0.115642L0.452122 7.85636C0.313798 7.94072 0.199665 8.05842 0.120507 8.19832C0.0413488 8.33823 -0.000202356 8.4957 -0.000202342 8.65583C-0.000202328 8.81596 0.0413489 8.97343 0.120507 9.11333C0.199665 9.25324 0.313798 9.37094 0.452122 9.45529V9.45529Z" fill="white"/>
</svg>
