<svg width="55" height="55" viewBox="0 0 55 55" fill="none" xmlns="http://www.w3.org/2000/svg">
<path d="M31.2302 25.55L20.0402 19.09C18.7902 18.37 17.2202 19.27 17.2202 20.72V33.64C17.2202 35.09 18.7902 35.99 20.0402 35.27L31.2302 28.81C32.4802 28.08 32.4802 26.27 31.2302 25.55Z" fill="white"/>
<path d="M36.5004 35.64C35.5904 35.64 34.8604 34.9 34.8604 34V20.35C34.8604 19.44 35.6004 18.71 36.5004 18.71C37.4104 18.71 38.1404 19.45 38.1404 20.35V34C38.1404 34.91 37.4104 35.64 36.5004 35.64Z" fill="white"/>
<path d="M27.44 54.88C12.31 54.88 0 42.57 0 27.44C0 12.31 12.31 0 27.44 0C42.57 0 54.88 12.31 54.88 27.44C54.88 42.57 42.57 54.88 27.44 54.88ZM27.44 4.79C14.95 4.79 4.78999 14.95 4.78999 27.44C4.78999 39.93 14.95 50.09 27.44 50.09C39.93 50.09 50.09 39.93 50.09 27.44C50.09 14.95 39.93 4.79 27.44 4.79Z" fill="white"/>
</svg>
