<svg width="35" height="35" viewBox="0 0 35 35" fill="none" xmlns="http://www.w3.org/2000/svg">
<path fill-rule="evenodd" clip-rule="evenodd" d="M5.97553 1.02577C4.60905 -0.341417 2.39298 -0.341997 1.02578 1.02447C-0.341416 2.39094 -0.342001 4.60702 1.02447 5.97421L12.5404 17.4962L1.43138 28.6052C0.0645415 29.9721 0.0645408 32.1881 1.43138 33.555C2.79821 34.9218 5.01429 34.9218 6.38112 33.555L17.4888 22.4473L28.59 33.5543C29.9565 34.9215 32.1726 34.9221 33.5398 33.5556C34.907 32.1891 34.9075 29.9731 33.5411 28.6059L22.4386 17.4975L33.9612 5.97487C35.3281 4.60803 35.3281 2.39197 33.9612 1.02513C32.5944 -0.341707 30.3783 -0.341707 29.0115 1.02513L17.4901 12.5465L5.97553 1.02577Z" fill="white"/>
</svg>
