<svg width="57" height="25" viewBox="0 0 57 25" fill="none" xmlns="http://www.w3.org/2000/svg">
<path fill-rule="evenodd" clip-rule="evenodd" d="M22.7554 12.9156C22.7554 12.3215 23.237 11.8398 23.8312 11.8398H55.2681C55.8623 11.8398 56.3439 12.3215 56.3439 12.9156C56.3439 13.5098 55.8623 13.9914 55.2681 13.9914H23.8312C23.237 13.9914 22.7554 13.5098 22.7554 12.9156Z" fill="white"/>
<path fill-rule="evenodd" clip-rule="evenodd" d="M12.9157 3.07579C7.48135 3.07579 3.07592 7.48123 3.07592 12.9156C3.07592 18.35 7.48135 22.7554 12.9157 22.7554C18.3501 22.7554 22.7555 18.35 22.7555 12.9156C22.7555 7.48123 18.3501 3.07579 12.9157 3.07579ZM0.924316 12.9156C0.924316 6.29293 6.29305 0.924194 12.9157 0.924194C19.5384 0.924194 24.9071 6.29293 24.9071 12.9156C24.9071 19.5383 19.5384 24.907 12.9157 24.907C6.29305 24.907 0.924316 19.5383 0.924316 12.9156Z" fill="white"/>
</svg>
