<svg width="18" height="20" viewBox="0 0 18 20" fill="none" xmlns="http://www.w3.org/2000/svg">
<path d="M16.3058 8.43886L16.2992 8.43488L16.2926 8.4311L2.66181 0.680974L2.66187 0.680862L2.65188 0.675477C2.43359 0.557838 2.1888 0.497602 1.94086 0.500073C1.69294 0.502544 1.44937 0.56763 1.23346 0.689643C1.01754 0.81166 0.836086 0.986776 0.707313 1.19899C0.578479 1.4113 0.507018 1.65318 0.500189 1.90134L0.5 1.90133V1.91509V17.4059H0.499811L0.500189 17.4197C0.507018 17.6679 0.578481 17.9097 0.707313 18.122C0.836086 18.3342 1.01754 18.5094 1.23346 18.6314C1.44936 18.7534 1.69294 18.8185 1.94086 18.821C2.18878 18.8234 2.43358 18.7632 2.65188 18.6456L2.65194 18.6457L2.66158 18.6402L16.2923 10.8995L16.2991 10.8956L16.3058 10.8916C16.5162 10.7632 16.6908 10.5836 16.8122 10.3689C16.9337 10.1542 16.9978 9.91199 16.9978 9.66522C16.9978 9.41844 16.9337 9.17619 16.8122 8.96149C16.6908 8.74687 16.5162 8.56721 16.3058 8.43886Z" fill="white" stroke="white"/>
</svg>
