<svg width="57" height="57" viewBox="0 0 57 57" fill="none" xmlns="http://www.w3.org/2000/svg">
<path d="M32.2302 26.55L21.0402 20.09C19.7902 19.37 18.2202 20.27 18.2202 21.72V34.64C18.2202 36.09 19.7902 36.99 21.0402 36.27L32.2302 29.81C33.4802 29.08 33.4802 27.27 32.2302 26.55Z" fill="white" stroke="white" stroke-miterlimit="10"/>
<path d="M37.5004 36.64C36.5904 36.64 35.8604 35.9 35.8604 35V21.35C35.8604 20.44 36.6004 19.71 37.5004 19.71C38.4104 19.71 39.1404 20.45 39.1404 21.35V35C39.1404 35.91 38.4104 36.64 37.5004 36.64Z" fill="white" stroke="white" stroke-miterlimit="10"/>
<path d="M28.44 55.88C13.31 55.88 1 43.57 1 28.44C1 13.31 13.31 1 28.44 1C43.57 1 55.88 13.31 55.88 28.44C55.88 43.57 43.57 55.88 28.44 55.88ZM28.44 5.79C15.95 5.79 5.78999 15.95 5.78999 28.44C5.78999 40.93 15.95 51.09 28.44 51.09C40.93 51.09 51.09 40.93 51.09 28.44C51.09 15.95 40.93 5.79 28.44 5.79Z" fill="white" stroke="white" stroke-miterlimit="10"/>
</svg>
