<svg width="56" height="26" viewBox="0 0 56 26" fill="none" xmlns="http://www.w3.org/2000/svg">
<path fill-rule="evenodd" clip-rule="evenodd" d="M0.359863 12.8557C0.359863 12.2616 0.841515 11.7799 1.43566 11.7799H32.3075C32.9016 11.7799 33.3833 12.2616 33.3833 12.8557C33.3833 13.4499 32.9016 13.9315 32.3075 13.9315H1.43566C0.841515 13.9315 0.359863 13.4499 0.359863 12.8557Z" fill="white"/>
<path d="M43.2203 25.2778C36.4716 25.2778 30.8716 19.6445 30.8716 12.8556C30.8716 6.06668 36.4716 0.43335 43.2203 0.43335C49.969 0.43335 55.569 6.06668 55.569 12.8556C55.569 19.6445 50.1126 25.2778 43.2203 25.2778ZM43.2203 3.46668C38.0511 3.46668 33.887 7.65557 33.887 12.8556C33.887 18.0556 38.0511 22.2445 43.2203 22.2445C48.3895 22.2445 52.5536 18.0556 52.5536 12.8556C52.5536 7.65557 48.3895 3.46668 43.2203 3.46668Z" fill="white"/>
<path d="M43.2205 20.2222C47.265 20.2222 50.5436 16.9241 50.5436 12.8556C50.5436 8.78706 47.265 5.48889 43.2205 5.48889C39.1761 5.48889 35.8975 8.78706 35.8975 12.8556C35.8975 16.9241 39.1761 20.2222 43.2205 20.2222Z" fill="white"/>
</svg>
