<svg width="57" height="57" viewBox="0 0 57 57" fill="none" xmlns="http://www.w3.org/2000/svg">
<path d="M51.3 31.96L55.62 28.86L54.51 20.62L49.53 18.74C48.88 17.29 48.08 15.92 47.15 14.64L48.01 9.39L41.4 4.35L36.55 6.54C35.07 5.98 33.54 5.57 31.97 5.32L28.86 1L20.62 2.11L18.74 7.09C17.29 7.74 15.92 8.54 14.64 9.47L9.39 8.61L4.35001 15.22L6.53999 20.07C5.97999 21.55 5.56999 23.09 5.31999 24.65L1 27.76L2.11 36L7.11 37.89C7.76 39.33 8.56 40.68 9.48 41.94L8.62 47.23L15.23 52.27L20.09 50.07C21.55 50.62 23.08 51.02 24.64 51.27L27.76 55.61L36 54.5L37.88 49.52C39.33 48.87 40.7 48.07 41.98 47.14L47.23 48L52.27 41.39L50.08 36.54C50.65 35.07 51.06 33.53 51.3 31.96ZM28.32 47.53C17.72 47.53 9.10001 38.91 9.10001 28.31C9.10001 17.71 17.72 9.09 28.32 9.09C38.92 9.09 47.54 17.71 47.54 28.31C47.54 38.91 38.92 47.53 28.32 47.53Z" fill="white" stroke="white" stroke-miterlimit="10"/>
</svg>
