<svg width="234" height="234" viewBox="0 0 234 234" fill="none" xmlns="http://www.w3.org/2000/svg">
<path d="M0.5 117C0.5 181.236 52.7639 233.5 117 233.5C181.236 233.5 233.5 181.236 233.5 117C233.5 52.7639 181.236 0.5 117 0.5C52.7639 0.5 0.5 52.7639 0.5 117ZM11.5 117C11.5 58.8261 58.8261 11.5 117 11.5C175.174 11.5 222.5 58.8261 222.5 117C222.5 175.174 175.174 222.5 117 222.5C58.8261 222.5 11.5 175.174 11.5 117Z" fill="white" stroke="white"/>
<path d="M150.43 108.75L100.57 79.96C94.98 76.73 88 80.77 88 87.22V144.79C88 151.24 94.98 155.27 100.57 152.05L150.43 123.26C156.02 120.04 156.02 111.97 150.43 108.75Z" fill="white"/>
</svg>
