<svg width="37" height="37" viewBox="0 0 37 37" fill="none" xmlns="http://www.w3.org/2000/svg">
<mask id="path-1-outside-1" maskUnits="userSpaceOnUse" x="0" y="0" width="37" height="37" fill="black">
<rect fill="white" width="37" height="37"/>
<path fill-rule="evenodd" clip-rule="evenodd" d="M6.97553 2.02577C5.60905 0.658583 3.39298 0.658003 2.02578 2.02447C0.658584 3.39094 0.657999 5.60702 2.02447 6.97421L13.5404 18.4962L2.43138 29.6052C1.06454 30.9721 1.06454 33.1881 2.43138 34.555C3.79821 35.9218 6.01429 35.9218 7.38112 34.555L18.4888 23.4473L29.59 34.5543C30.9565 35.9215 33.1726 35.9221 34.5398 34.5556C35.907 33.1891 35.9075 30.9731 34.5411 29.6059L23.4386 18.4975L34.9612 6.97487C36.3281 5.60803 36.3281 3.39197 34.9612 2.02513C33.5944 0.658293 31.3783 0.658293 30.0115 2.02513L18.4901 13.5465L6.97553 2.02577Z"/>
</mask>
<path fill-rule="evenodd" clip-rule="evenodd" d="M6.97553 2.02577C5.60905 0.658583 3.39298 0.658003 2.02578 2.02447C0.658584 3.39094 0.657999 5.60702 2.02447 6.97421L13.5404 18.4962L2.43138 29.6052C1.06454 30.9721 1.06454 33.1881 2.43138 34.555C3.79821 35.9218 6.01429 35.9218 7.38112 34.555L18.4888 23.4473L29.59 34.5543C30.9565 35.9215 33.1726 35.9221 34.5398 34.5556C35.907 33.1891 35.9075 30.9731 34.5411 29.6059L23.4386 18.4975L34.9612 6.97487C36.3281 5.60803 36.3281 3.39197 34.9612 2.02513C33.5944 0.658293 31.3783 0.658293 30.0115 2.02513L18.4901 13.5465L6.97553 2.02577Z" fill="white"/>
<path d="M2.02578 2.02447L1.31886 1.31718L1.31886 1.31718L2.02578 2.02447ZM6.97553 2.02577L7.68282 1.31885L7.68282 1.31885L6.97553 2.02577ZM2.02447 6.97421L2.73177 6.26729L2.73176 6.26729L2.02447 6.97421ZM13.5404 18.4962L14.2475 19.2033L14.9544 18.4964L14.2477 17.7893L13.5404 18.4962ZM2.43138 29.6052L1.72427 28.8981L1.72427 28.8981L2.43138 29.6052ZM2.43138 34.555L3.13849 33.8479L3.13848 33.8479L2.43138 34.555ZM7.38112 34.555L6.67402 33.8479L7.38112 34.555ZM18.4888 23.4473L19.1961 22.7403L18.489 22.0329L17.7817 22.7402L18.4888 23.4473ZM29.59 34.5543L28.8827 35.2612L28.8827 35.2612L29.59 34.5543ZM34.5411 29.6059L33.8338 30.3128L33.8338 30.3128L34.5411 29.6059ZM23.4386 18.4975L22.7315 17.7904L22.0246 18.4973L22.7313 19.2044L23.4386 18.4975ZM34.9612 6.97487L34.2541 6.26776L34.9612 6.97487ZM18.4901 13.5465L17.7828 14.2534L18.49 14.9609L19.1972 14.2536L18.4901 13.5465ZM2.7327 2.73177C3.70927 1.75572 5.29218 1.75613 6.26824 2.73269L7.68282 1.31885C5.92592 -0.438966 3.07668 -0.439709 1.31886 1.31718L2.7327 2.73177ZM2.73176 6.26729C1.75571 5.29073 1.75613 3.70782 2.7327 2.73177L1.31886 1.31718C-0.438963 3.07407 -0.439717 5.92332 1.31718 7.68113L2.73176 6.26729ZM14.2477 17.7893L2.73177 6.26729L1.31718 7.68113L12.8331 19.2031L14.2477 17.7893ZM3.13848 30.3123L14.2475 19.2033L12.8333 17.7891L1.72427 28.8981L3.13848 30.3123ZM3.13848 33.8479C2.16218 32.8716 2.16217 31.2886 3.13848 30.3123L1.72427 28.8981C-0.033087 30.6555 -0.0330939 33.5047 1.72427 35.2621L3.13848 33.8479ZM6.67402 33.8479C5.69771 34.8242 4.1148 34.8242 3.13849 33.8479L1.72426 35.2621C3.48162 37.0194 6.33087 37.0194 8.08823 35.2621L6.67402 33.8479ZM17.7817 22.7402L6.67402 33.8479L8.08823 35.2621L19.1959 24.1544L17.7817 22.7402ZM30.2973 33.8474L19.1961 22.7403L17.7815 24.1542L28.8827 35.2612L30.2973 33.8474ZM33.8328 33.8483C32.8563 34.8244 31.2734 34.824 30.2973 33.8474L28.8827 35.2612C30.6396 37.0191 33.4889 37.0198 35.2467 35.2629L33.8328 33.8483ZM33.8338 30.3128C34.8098 31.2894 34.8094 32.8723 33.8328 33.8483L35.2467 35.2629C37.0045 33.506 37.0053 30.6568 35.2484 28.899L33.8338 30.3128ZM22.7313 19.2044L33.8338 30.3128L35.2484 28.899L24.1459 17.7906L22.7313 19.2044ZM34.2541 6.26776L22.7315 17.7904L24.1457 19.2046L35.6683 7.68197L34.2541 6.26776ZM34.2541 2.73224C35.2304 3.70855 35.2304 5.29145 34.2541 6.26776L35.6683 7.68197C37.4257 5.92461 37.4257 3.07538 35.6683 1.31802L34.2541 2.73224ZM30.7186 2.73224C31.6949 1.75592 33.2778 1.75592 34.2541 2.73224L35.6683 1.31802C33.911 -0.439339 31.0617 -0.439338 29.3044 1.31802L30.7186 2.73224ZM19.1972 14.2536L30.7186 2.73224L29.3044 1.31802L17.783 12.8394L19.1972 14.2536ZM6.26823 2.73269L17.7828 14.2534L19.1974 12.8396L7.68282 1.31885L6.26823 2.73269Z" fill="white" mask="url(#path-1-outside-1)"/>
</svg>
