<svg width="57" height="26" viewBox="0 0 57 26" fill="none" xmlns="http://www.w3.org/2000/svg">
<path fill-rule="evenodd" clip-rule="evenodd" d="M22.7559 12.9157C22.7559 12.322 23.2372 11.8407 23.8309 11.8407H55.2678C55.8615 11.8407 56.3428 12.322 56.3428 12.9157C56.3428 13.5094 55.8615 13.9907 55.2678 13.9907H23.8309C23.2372 13.9907 22.7559 13.5094 22.7559 12.9157Z" fill="white" stroke="white" stroke-miterlimit="10" stroke-linecap="round"/>
<path fill-rule="evenodd" clip-rule="evenodd" d="M12.9154 3.07505C7.48059 3.07505 3.0748 7.48084 3.0748 12.9157C3.0748 18.3505 7.48059 22.7563 12.9154 22.7563C18.3502 22.7563 22.756 18.3505 22.756 12.9157C22.756 7.48084 18.3502 3.07505 12.9154 3.07505ZM0.924805 12.9157C0.924805 6.29343 6.29318 0.925049 12.9154 0.925049C19.5376 0.925049 24.906 6.29343 24.906 12.9157C24.906 19.5379 19.5376 24.9063 12.9154 24.9063C6.29318 24.9063 0.924805 19.5379 0.924805 12.9157Z" fill="white" stroke="white" stroke-miterlimit="10"/>
</svg>
