<svg width="16" height="18" viewBox="0 0 16 18" fill="none" xmlns="http://www.w3.org/2000/svg">
<path d="M15.0454 7.86575L1.41467 0.115629C1.27103 0.0382192 1.1096 -0.00158367 0.945838 4.82337e-05C0.782074 0.00168014 0.621471 0.0446869 0.479454 0.124943C0.337436 0.2052 0.218728 0.320014 0.13477 0.458375C0.0508111 0.596736 0.004433 0.754006 0 0.915094V16.4059C0.004433 16.567 0.0508111 16.7243 0.13477 16.8626C0.218728 17.001 0.337436 17.1158 0.479454 17.1961C0.621471 17.2763 0.782074 17.3193 0.945838 17.321C1.1096 17.3226 1.27103 17.2828 1.41467 17.2054L15.0454 9.46468C15.1838 9.38033 15.2979 9.26263 15.3771 9.12273C15.4562 8.98282 15.4978 8.82534 15.4978 8.66522C15.4978 8.50509 15.4562 8.34762 15.3771 8.20772C15.2979 8.06781 15.1838 7.9501 15.0454 7.86575Z" fill="white"/>
</svg>
