<svg width="234" height="234" viewBox="0 0 234 234" fill="none" xmlns="http://www.w3.org/2000/svg">
<path d="M0.5 117C0.5 181.236 52.7639 233.5 117 233.5C181.236 233.5 233.5 181.236 233.5 117C233.5 52.7639 181.236 0.5 117 0.5C52.7639 0.5 0.5 52.7639 0.5 117ZM11.5 117C11.5 58.8261 58.8261 11.5 117 11.5C175.174 11.5 222.5 58.8261 222.5 117C222.5 175.174 175.174 222.5 117 222.5C58.8261 222.5 11.5 175.174 11.5 117Z" fill="white" stroke="white"/>
<path d="M97.3402 154.68H104.98C108.205 154.68 110.83 152.067 110.83 148.84V85.17C110.83 81.9333 108.206 79.32 104.98 79.32H97.3402C94.1035 79.32 91.4902 81.9445 91.4902 85.17V148.83C91.4902 152.067 94.1147 154.68 97.3402 154.68Z" fill="white" stroke="white"/>
<path d="M129.02 154.68H136.66C139.885 154.68 142.51 152.067 142.51 148.84V85.17C142.51 81.9333 139.886 79.32 136.66 79.32H129.02C125.784 79.32 123.17 81.9445 123.17 85.17V148.83C123.17 152.067 125.795 154.68 129.02 154.68Z" fill="white" stroke="white"/>
</svg>
