<svg width="60" height="26" viewBox="0 0 60 26" fill="none" xmlns="http://www.w3.org/2000/svg">
<path fill-rule="evenodd" clip-rule="evenodd" d="M4.35986 12.8557C4.35986 12.2616 4.84152 11.7799 5.43566 11.7799H36.3075C36.9016 11.7799 37.3833 12.2616 37.3833 12.8557C37.3833 13.4499 36.9016 13.9315 36.3075 13.9315H5.43566C4.84152 13.9315 4.35986 13.4499 4.35986 12.8557Z" fill="white" stroke="white" stroke-width="0.5" stroke-miterlimit="10" stroke-linecap="round"/>
<path d="M47.2203 25.2778C40.4716 25.2778 34.8716 19.6445 34.8716 12.8556C34.8716 6.06668 40.4716 0.43335 47.2203 0.43335C53.969 0.43335 59.569 6.06668 59.569 12.8556C59.569 19.6445 54.1126 25.2778 47.2203 25.2778ZM47.2203 3.46668C42.0511 3.46668 37.887 7.65557 37.887 12.8556C37.887 18.0556 42.0511 22.2445 47.2203 22.2445C52.3895 22.2445 56.5536 18.0556 56.5536 12.8556C56.5536 7.65557 52.3895 3.46668 47.2203 3.46668Z" fill="white" stroke="white" stroke-width="0.5"/>
<path d="M47.2205 20.2222C51.265 20.2222 54.5436 16.9241 54.5436 12.8556C54.5436 8.78706 51.265 5.48889 47.2205 5.48889C43.1761 5.48889 39.8975 8.78706 39.8975 12.8556C39.8975 16.9241 43.1761 20.2222 47.2205 20.2222Z" fill="white" stroke="white" stroke-width="0.5"/>
</svg>
