<svg width="18" height="20" viewBox="0 0 18 20" fill="none" xmlns="http://www.w3.org/2000/svg">
<path d="M14.8358 18.6401L14.8357 18.6402L14.8457 18.6456C15.064 18.7632 15.3088 18.8234 15.5567 18.821C15.8046 18.8185 16.0482 18.7534 16.2641 18.6314C16.48 18.5094 16.6615 18.3343 16.7902 18.1221C16.9191 17.9097 16.9905 17.6679 16.9974 17.4197L16.9976 17.4197L16.9976 17.406L16.9976 1.91511L16.9977 1.91511L16.9974 1.90135C16.9905 1.65319 16.9191 1.41132 16.7902 1.19901C16.6615 0.986795 16.48 0.81168 16.2641 0.689663C16.0482 0.56765 15.8046 0.502563 15.5567 0.500093C15.3088 0.497621 15.064 0.557844 14.8457 0.675489L14.8456 0.675381L14.836 0.680858L1.20522 8.42158L1.19845 8.42542L1.1918 8.42947C0.981344 8.55781 0.806775 8.73746 0.685335 8.9521C0.56386 9.1668 0.4998 9.40905 0.4998 9.65583C0.4998 9.90261 0.563862 10.1449 0.685335 10.3595C0.806769 10.5742 0.981334 10.7538 1.1918 10.8822L1.45212 10.4553L1.20499 10.8899L14.8358 18.6401Z" fill="white" stroke="white"/>
</svg>
