<svg width="234" height="234" viewBox="0 0 234 234" fill="none" xmlns="http://www.w3.org/2000/svg">
<path d="M0.5 117C0.5 181.236 52.7639 233.5 117 233.5C181.236 233.5 233.5 181.236 233.5 117C233.5 52.7639 181.236 0.5 117 0.5C52.7639 0.5 0.5 52.7639 0.5 117ZM11.5 117C11.5 58.8261 58.8261 11.5 117 11.5C175.174 11.5 222.5 58.8261 222.5 117C222.5 175.174 175.174 222.5 117 222.5C58.8261 222.5 11.5 175.174 11.5 117Z" fill="white" stroke="white"/>
<path d="M101.82 153.483L101.82 153.483C95.8967 156.895 88.5 152.625 88.5 145.79V88.22C88.5 81.386 95.8959 77.1041 101.82 80.527C101.82 80.527 101.82 80.5271 101.82 80.5271L151.68 109.317L101.82 153.483ZM101.82 153.483L151.68 124.693M101.82 153.483L151.68 124.693M151.68 124.693C157.603 121.281 157.603 112.73 151.68 109.317L151.68 124.693Z" fill="white" stroke="white"/>
</svg>
