<svg width="78" height="81" fill="none" xmlns="http://www.w3.org/2000/svg"><path d="M72.39 23.51c-5-9.02-13.22-15.55-23.14-18.39-.89-.24-1.82.26-2.07 1.15-.25.89.26 1.82 1.15 2.07 9.06 2.59 16.56 8.55 21.14 16.79 4.57 8.24 5.66 17.76 3.07 26.82-2.59 9.06-8.55 16.57-16.79 21.14-8.24 4.57-17.76 5.66-26.82 3.07-18.7-5.34-29.56-24.91-24.21-43.6C7.71 22.1 15.37 13.78 25.09 9.71l1.34 5.35c.24.94 1.4 1.28 2.1.6l10-9.67c.7-.67.4-1.85-.53-2.12L24.62.05c-.93-.27-1.81.58-1.57 1.52l1.21 4.85C13.4 10.8 4.82 20.01 1.49 31.63-4.36 52.11 7.53 73.53 28 79.39c3.52 1.01 7.11 1.51 10.68 1.51 6.47 0 12.87-1.64 18.69-4.87 9.02-5.01 15.55-13.23 18.39-23.14 2.84-9.93 1.64-20.36-3.37-29.38z" fill="#fff"/></svg>