<svg width="234" height="234" fill="none" xmlns="http://www.w3.org/2000/svg"><path d="M.5 117c0 64.236 52.264 116.5 116.5 116.5 64.236 0 116.5-52.264 116.5-116.5C233.5 52.764 181.236.5 117 .5 52.764.5.5 52.764.5 117zm11 0C11.5 58.826 58.826 11.5 117 11.5S222.5 58.826 222.5 117 175.174 222.5 117 222.5 11.5 175.174 11.5 117z" fill="#fff" stroke="#fff"/><path d="M150.43 108.75l-49.86-28.79C94.98 76.73 88 80.77 88 87.22v57.57c0 6.45 6.98 10.48 12.57 7.26l49.86-28.79c5.59-3.22 5.59-11.29 0-14.51z" fill="#fff"/></svg>