<svg width="232" height="232" fill="none" xmlns="http://www.w3.org/2000/svg"><path d="M116 232C52.04 232 0 179.96 0 116S52.04 0 116 0s116 52.04 116 116-52.04 116-116 116zm0-222C57.55 10 10 57.55 10 116s47.55 106 106 106 106-47.55 106-106S174.45 10 116 10z" fill="#fff"/><path d="M103.98 153.18h-7.64a5.35 5.35 0 01-5.35-5.35V84.17a5.35 5.35 0 015.35-5.35h7.64a5.35 5.35 0 015.35 5.35v63.67c0 2.95-2.4 5.34-5.35 5.34zm31.68 0h-7.64a5.35 5.35 0 01-5.35-5.35V84.17a5.35 5.35 0 015.35-5.35h7.64a5.35 5.35 0 015.35 5.35v63.67c0 2.95-2.4 5.34-5.35 5.34z" fill="#fff"/></svg>