<svg width="57" height="57" fill="none" xmlns="http://www.w3.org/2000/svg"><path d="M51.3 31.96l4.32-3.1-1.11-8.24-4.98-1.88c-.65-1.45-1.45-2.82-2.38-4.1l.86-5.25-6.61-5.04-4.85 2.19c-1.48-.56-3.01-.97-4.58-1.22L28.86 1l-8.24 1.11-1.88 4.98c-1.45.65-2.82 1.45-4.1 2.38l-5.25-.86-5.04 6.61 2.19 4.85a23.45 23.45 0 00-1.22 4.58L1 27.76 2.11 36l5 1.89c.65 1.44 1.45 2.79 2.37 4.05l-.86 5.29 6.61 5.04 4.86-2.2c1.46.55 2.99.95 4.55 1.2l3.12 4.34L36 54.5l1.88-4.98c1.45-.65 2.82-1.45 4.1-2.38l5.25.86 5.04-6.61-2.19-4.85c.57-1.47.98-3.01 1.22-4.58zM28.32 47.53c-10.6 0-19.22-8.62-19.22-19.22S17.72 9.09 28.32 9.09s19.22 8.62 19.22 19.22-8.62 19.22-19.22 19.22z" fill="#fff" stroke="#fff" stroke-miterlimit="10"/></svg>