<svg width="56" height="26" fill="none" xmlns="http://www.w3.org/2000/svg"><path fill-rule="evenodd" clip-rule="evenodd" d="M.36 12.856c0-.594.482-1.076 1.076-1.076h30.871a1.076 1.076 0 010 2.152H1.436A1.076 1.076 0 01.36 12.855z" fill="#fff"/><path d="M43.22 25.278c-6.748 0-12.348-5.633-12.348-12.422 0-6.79 5.6-12.423 12.348-12.423 6.749 0 12.349 5.634 12.349 12.423S50.113 25.278 43.22 25.278zm0-21.811c-5.169 0-9.333 4.189-9.333 9.389 0 5.2 4.164 9.388 9.333 9.388 5.17 0 9.334-4.188 9.334-9.388s-4.165-9.39-9.334-9.39z" fill="#fff"/><path d="M43.22 20.222c4.045 0 7.324-3.298 7.324-7.366 0-4.069-3.279-7.367-7.323-7.367-4.045 0-7.323 3.298-7.323 7.367 0 4.068 3.278 7.366 7.322 7.366z" fill="#fff"/></svg>