<svg width="57" height="57" fill="none" xmlns="http://www.w3.org/2000/svg"><path d="M32.23 26.55l-11.19-6.46c-1.25-.72-2.82.18-2.82 1.63v12.92c0 1.45 1.57 2.35 2.82 1.63l11.19-6.46c1.25-.73 1.25-2.54 0-3.26zm5.27 10.09c-.91 0-1.64-.74-1.64-1.64V21.35a1.641 1.641 0 013.28 0V35c0 .91-.73 1.64-1.64 1.64z" fill="#fff" stroke="#fff" stroke-miterlimit="10"/><path d="M28.44 55.88C13.31 55.88 1 43.57 1 28.44S13.31 1 28.44 1s27.44 12.31 27.44 27.44-12.31 27.44-27.44 27.44zm0-50.09c-12.49 0-22.65 10.16-22.65 22.65 0 12.49 10.16 22.65 22.65 22.65 12.49 0 22.65-10.16 22.65-22.65 0-12.49-10.16-22.65-22.65-22.65z" fill="#fff" stroke="#fff" stroke-miterlimit="10"/></svg>