<svg width="37" height="37" fill="none" xmlns="http://www.w3.org/2000/svg"><mask id="a" maskUnits="userSpaceOnUse" x="0" y="0" width="37" height="37" fill="#000"><path fill="#fff" d="M0 0h37v37H0z"/><path fill-rule="evenodd" clip-rule="evenodd" d="M6.976 2.026a3.5 3.5 0 00-4.952 4.948L13.54 18.496 2.431 29.606a3.5 3.5 0 004.95 4.949L18.49 23.447l11.1 11.107a3.5 3.5 0 004.951-4.948L23.44 18.497 34.96 6.975a3.5 3.5 0 10-4.95-4.95L18.49 13.547 6.975 2.026z"/></mask><path fill-rule="evenodd" clip-rule="evenodd" d="M6.976 2.026a3.5 3.5 0 00-4.952 4.948L13.54 18.496 2.431 29.606a3.5 3.5 0 004.95 4.949L18.49 23.447l11.1 11.107a3.5 3.5 0 004.951-4.948L23.44 18.497 34.96 6.975a3.5 3.5 0 10-4.95-4.95L18.49 13.547 6.975 2.026z" fill="#fff"/><path d="M2.026 2.024l-.707-.707.707.707zm4.95.002l.707-.707-.707.707zM2.024 6.974l.708-.707-.708.707zM13.54 18.496l.708.707.706-.707-.706-.707-.708.707zM2.431 29.606l-.707-.708.707.707zm0 4.949l.707-.707-.707.707zm4.95 0l-.707-.707.707.707zM18.49 23.447l.707-.707-.707-.707-.707.707.707.707zm11.1 11.107l-.707.707.707-.707zm4.951-4.948l-.707.707.707-.707zM23.44 18.497l-.707-.707-.707.707.706.707.708-.707zM34.96 6.975l-.707-.707.707.707zm-16.47 6.572l-.708.706.707.708.707-.707-.707-.707zM2.732 2.732a2.5 2.5 0 013.535 0L7.683 1.32a4.5 4.5 0 00-6.364-.002l1.414 1.415zm-.001 3.535a2.5 2.5 0 010-3.535L1.32 1.317a4.5 4.5 0 00-.002 6.364l1.415-1.414zM14.248 17.79L2.732 6.267 1.317 7.681l11.516 11.522 1.415-1.414zM3.138 30.312l11.11-11.109-1.415-1.414L1.724 28.9l1.414 1.413zm0 3.536a2.5 2.5 0 010-3.536l-1.414-1.414a4.5 4.5 0 000 6.364l1.414-1.414zm3.536 0a2.5 2.5 0 01-3.536 0l-1.414 1.414a4.5 4.5 0 006.364 0l-1.414-1.414zM17.782 22.74L6.674 33.848l1.414 1.414 11.108-11.108-1.414-1.414zm12.515 11.107l-11.1-11.107-1.415 1.414 11.1 11.107 1.415-1.414zm3.536.001a2.5 2.5 0 01-3.536 0l-1.414 1.413a4.5 4.5 0 006.364.002l-1.414-1.415zm0-3.535a2.5 2.5 0 010 3.535l1.414 1.415a4.5 4.5 0 00.001-6.364l-1.414 1.414zM22.732 19.204l11.103 11.109 1.414-1.414-11.102-11.108-1.415 1.413zM34.254 6.268L22.732 17.79l1.414 1.415L35.668 7.682l-1.414-1.414zm0-3.536a2.5 2.5 0 010 3.536l1.414 1.414a4.5 4.5 0 000-6.364l-1.414 1.414zm-3.535 0a2.5 2.5 0 013.535 0l1.414-1.414a4.5 4.5 0 00-6.364 0l1.415 1.414zM19.197 14.254L30.72 2.732l-1.415-1.414-11.521 11.521 1.414 1.415zM6.268 2.733l11.515 11.52 1.414-1.413L7.683 1.319 6.268 2.733z" fill="#fff" mask="url(#a)"/></svg>