<svg width="57" height="26" fill="none" xmlns="http://www.w3.org/2000/svg"><path fill-rule="evenodd" clip-rule="evenodd" d="M22.756 12.916c0-.594.481-1.075 1.075-1.075h31.437a1.075 1.075 0 010 2.15H23.83a1.075 1.075 0 01-1.075-1.075z" fill="#fff" stroke="#fff" stroke-miterlimit="10" stroke-linecap="round"/><path fill-rule="evenodd" clip-rule="evenodd" d="M12.915 3.075c-5.434 0-9.84 4.406-9.84 9.84 0 5.436 4.406 9.841 9.84 9.841 5.435 0 9.841-4.405 9.841-9.84s-4.406-9.841-9.84-9.841zm-11.99 9.84c0-6.622 5.368-11.99 11.99-11.99 6.623 0 11.991 5.368 11.991 11.99 0 6.623-5.368 11.991-11.99 11.991-6.623 0-11.991-5.368-11.991-11.99z" fill="#fff" stroke="#fff" stroke-miterlimit="10"/></svg>