<svg width="234" height="234" fill="none" xmlns="http://www.w3.org/2000/svg"><path d="M.5 117c0 64.236 52.264 116.5 116.5 116.5 64.236 0 116.5-52.264 116.5-116.5C233.5 52.764 181.236.5 117 .5 52.764.5.5 52.764.5 117zm11 0C11.5 58.826 58.826 11.5 117 11.5S222.5 58.826 222.5 117 175.174 222.5 117 222.5 11.5 175.174 11.5 117z" fill="#fff" stroke="#fff"/><path d="M97.34 154.68h7.64c3.225 0 5.85-2.613 5.85-5.84V85.17a5.85 5.85 0 00-5.85-5.85h-7.64a5.85 5.85 0 00-5.85 5.85v63.66a5.85 5.85 0 005.85 5.85zm31.68 0h7.64c3.225 0 5.85-2.613 5.85-5.84V85.17a5.85 5.85 0 00-5.85-5.85h-7.64a5.85 5.85 0 00-5.85 5.85v63.66a5.85 5.85 0 005.85 5.85z" fill="#fff" stroke="#fff"/></svg>