<svg width="55" height="55" fill="none" xmlns="http://www.w3.org/2000/svg"><path d="M31.23 25.55l-11.19-6.46c-1.25-.72-2.82.18-2.82 1.63v12.92c0 1.45 1.57 2.35 2.82 1.63l11.19-6.46c1.25-.73 1.25-2.54 0-3.26zm5.27 10.09c-.91 0-1.64-.74-1.64-1.64V20.35a1.641 1.641 0 013.28 0V34c0 .91-.73 1.64-1.64 1.64z" fill="#fff"/><path d="M27.44 54.88C12.31 54.88 0 42.57 0 27.44S12.31 0 27.44 0s27.44 12.31 27.44 27.44-12.31 27.44-27.44 27.44zm0-50.09c-12.49 0-22.65 10.16-22.65 22.65 0 12.49 10.16 22.65 22.65 22.65 12.49 0 22.65-10.16 22.65-22.65 0-12.49-10.16-22.65-22.65-22.65z" fill="#fff"/></svg>