<svg width="57" height="25" fill="none" xmlns="http://www.w3.org/2000/svg"><path fill-rule="evenodd" clip-rule="evenodd" d="M22.755 12.916c0-.595.482-1.076 1.076-1.076h31.437a1.076 1.076 0 110 2.151H23.831a1.076 1.076 0 01-1.076-1.075z" fill="#fff"/><path fill-rule="evenodd" clip-rule="evenodd" d="M12.916 3.076a9.84 9.84 0 00-9.84 9.84c0 5.434 4.405 9.84 9.84 9.84 5.434 0 9.84-4.406 9.84-9.84 0-5.435-4.406-9.84-9.84-9.84zM.924 12.916C.924 6.293 6.293.924 12.916.924c6.622 0 11.991 5.369 11.991 11.992 0 6.622-5.369 11.991-11.991 11.991-6.623 0-11.992-5.369-11.992-11.991z" fill="#fff"/></svg>